Coordinates
version=1
nRows=17
nColumns=63
inDegrees=yes

Units are S.I. units (second, meters, Newtons, ...)
If the header above contains a line with 'inDegrees', this indicates whether rotational values are in degrees (yes) or radians (no).

endheader
time	pelvis_tilt	pelvis_list	pelvis_rotation	pelvis_tx	pelvis_ty	pelvis_tz	hip_flexion_r	hip_adduction_r	hip_rotation_r	knee_angle_r	knee_angle_r_beta	ankle_angle_r	subtalar_angle_r	mtp_angle_r	hip_flexion_l	hip_adduction_l	hip_rotation_l	knee_angle_l	knee_angle_l_beta	ankle_angle_l	subtalar_angle_l	mtp_angle_l	L5_S1_Flex_Ext	L5_S1_Lat_Bending	L5_S1_axial_rotation	L4_L5_Flex_Ext	L4_L5_Lat_Bending	L4_L5_axial_rotation	L3_L4_Flex_Ext	L3_L4_Lat_Bending	L3_L4_axial_rotation	L2_L3_Flex_Ext	L2_L3_Lat_Bending	L2_L3_axial_rotation	L1_L2_Flex_Ext	L1_L2_Lat_Bending	L1_L2_axial_rotation	L1_T12_Flex_Ext	L1_T12_Lat_Bending	L1_T12_axial_rotation	Abs_r3	Abs_r2	Abs_r1	Abs_t1	Abs_t2	neck_flexion	neck_bending	neck_rotation	arm_flex_r	arm_add_r	arm_rot_r	elbow_flex_r	pro_sup_r	wrist_flex_r	wrist_dev_r	arm_flex_l	arm_add_l	arm_rot_l	elbow_flex_l	pro_sup_l	wrist_flex_l	wrist_dev_l
1.586207	-2.540792	-7.798821	88.497122	0.178111	0.714289	0.818232	15.368129	1.988298	-4.202057	14.143274	0.246847	27.449771	-0.973839	0.000000	11.910952	-1.777151	12.316992	7.751907	0.135296	25.251745	-12.822113	0.000000	0.187867	-0.011600	-0.282649	0.348888	-0.015428	-0.300315	0.308647	-0.028204	-0.300315	0.214713	-0.028204	-0.247318	0.174453	-0.023654	-0.229652	0.107347	-0.017968	-0.211987	1.341916	-0.131218	-1.572010	0.000000	0.000000	15.690907	0.193255	7.734471	24.161330	-13.798457	-0.761349	111.041553	85.899875	-11.223082	13.995513	17.163553	-13.107481	-21.139652	128.048244	75.241953	-14.800079	8.138182
1.603448	-2.693158	-7.992072	88.472047	0.178625	0.713797	0.818661	15.394615	1.947922	-3.785367	13.768867	0.240312	27.232088	-1.567037	0.000000	12.163065	-1.661676	12.530665	7.775223	0.135703	25.122904	-12.965183	0.000000	0.183939	-0.024855	-0.286023	0.341594	-0.033057	-0.303899	0.302194	-0.060433	-0.303899	0.210224	-0.060433	-0.250270	0.170806	-0.050685	-0.232393	0.105103	-0.038501	-0.214517	1.313861	-0.281166	-1.590772	0.000000	0.000000	15.201719	-0.268573	7.848529	24.385753	-12.992278	0.235713	112.773006	85.544244	-11.021619	15.046011	18.128403	-12.894259	-23.037840	127.487373	76.022554	-14.741931	8.430816
1.620690	-2.837768	-8.155402	88.440713	0.179128	0.713331	0.819069	15.410064	1.908797	-3.386070	13.440515	0.234581	27.059352	-2.135205	0.000000	12.368587	-1.553427	12.757717	7.773817	0.135679	25.006966	-13.117406	0.000000	0.179726	-0.041042	-0.273294	0.333769	-0.054586	-0.290375	0.295272	-0.099790	-0.290375	0.205409	-0.099790	-0.239132	0.166894	-0.083693	-0.222051	0.102695	-0.063574	-0.204971	1.283765	-0.464277	-1.519980	0.000000	0.000000	14.754087	-0.601004	7.848580	24.416007	-12.237103	0.916648	114.447950	85.301802	-10.877518	15.585370	18.939583	-12.686880	-24.908793	126.780011	77.209432	-14.467426	8.051971
1.637931	-2.956808	-8.290569	88.402288	0.179592	0.712903	0.819445	15.423340	1.885685	-3.016130	13.172764	0.229908	26.938497	-2.658660	0.000000	12.533075	-1.469311	12.984947	7.753676	0.135327	24.932089	-13.263506	0.000000	0.175784	-0.058053	-0.254075	0.326449	-0.077210	-0.269955	0.288796	-0.141150	-0.269955	0.200904	-0.141150	-0.222316	0.163233	-0.118382	-0.206436	0.100443	-0.089924	-0.190557	1.255611	-0.656707	-1.413091	0.000000	0.000000	14.348955	-0.741825	7.809230	24.370167	-11.558326	1.237152	115.810797	85.149032	-10.774826	15.522658	19.523844	-12.468105	-26.702774	126.056416	78.704622	-14.007440	7.159937
1.655172	-3.047745	-8.396228	88.347619	0.180011	0.712522	0.819782	15.440728	1.878036	-2.693379	12.977546	0.226501	26.880793	-3.099600	0.000000	12.655649	-1.411871	13.189033	7.717919	0.134703	24.916236	-13.388812	0.000000	0.170906	-0.075919	-0.233096	0.317389	-0.100972	-0.247665	0.280781	-0.184589	-0.247665	0.195328	-0.184589	-0.203959	0.158703	-0.154813	-0.189391	0.097655	-0.117598	-0.174822	1.220761	-0.858808	-1.296412	0.000000	0.000000	14.007044	-0.654188	7.736627	24.344705	-11.001139	1.175453	116.652226	85.073129	-10.701642	14.775956	19.856771	-12.217895	-28.334363	125.476004	80.290916	-13.415551	6.107235
1.672414	-3.092327	-8.478168	88.294472	0.180323	0.712211	0.820047	15.472202	1.892290	-2.466987	12.868639	0.224600	26.884484	-3.416004	0.000000	12.739584	-1.397924	13.344472	7.660099	0.133694	24.968449	-13.424067	0.000000	0.165992	-0.089343	-0.219796	0.308264	-0.118826	-0.233534	0.272709	-0.217229	-0.233534	0.189713	-0.217229	-0.192322	0.154141	-0.182189	-0.178585	0.094848	-0.138393	-0.164847	1.185667	-1.010668	-1.222442	0.000000	0.000000	13.703517	-0.406493	7.771597	24.422608	-10.618377	0.789032	116.816289	85.088010	-10.637652	13.243401	19.909075	-11.934869	-29.622107	125.128276	81.133557	-12.918620	4.876482
1.689655	-3.089902	-8.547415	88.239510	0.180504	0.711968	0.820235	15.528811	1.931071	-2.320277	12.839983	0.224100	26.933092	-3.623138	0.000000	12.798925	-1.423552	13.464788	7.588119	0.132438	25.066136	-13.418500	0.000000	0.161478	-0.097105	-0.209162	0.299881	-0.129149	-0.222234	0.265292	-0.236100	-0.222234	0.184553	-0.236100	-0.183017	0.149948	-0.198016	-0.169944	0.092268	-0.150415	-0.156871	1.153420	-1.098466	-1.163295	0.000000	0.000000	13.468190	-0.078422	7.865098	24.581213	-10.453179	0.086515	116.330071	85.218649	-10.612971	10.959665	19.756670	-11.607834	-30.518280	125.066159	81.633960	-12.518011	3.918559
1.706897	-3.048256	-8.614912	88.190294	0.180549	0.711786	0.820364	15.618894	1.984202	-2.271614	12.878607	0.224774	27.015141	-3.694402	0.000000	12.849875	-1.477648	13.573767	7.507992	0.131039	25.175505	-13.419116	0.000000	0.157760	-0.098136	-0.205532	0.292975	-0.130521	-0.218378	0.259183	-0.238608	-0.218378	0.180303	-0.238608	-0.179840	0.146496	-0.200119	-0.166995	0.090144	-0.152013	-0.154149	1.126861	-1.110133	-1.143106	0.000000	0.000000	13.321403	0.248077	8.062306	24.799476	-10.503157	-0.798156	115.281286	85.476185	-10.775186	7.903424	19.489474	-11.260747	-30.973208	125.286439	81.846836	-12.286719	3.465103
1.724138	-2.961032	-8.682111	88.138594	0.180459	0.711667	0.820434	15.737574	2.056709	-2.358009	12.968467	0.226342	27.121289	-3.559958	0.000000	12.893823	-1.569073	13.654325	7.424689	0.129585	25.293453	-13.425028	0.000000	0.154730	-0.090382	-0.198753	0.287349	-0.120208	-0.211175	0.254206	-0.219755	-0.211175	0.176841	-0.219755	-0.173909	0.143682	-0.184307	-0.161487	0.088413	-0.140002	-0.149065	1.105221	-1.022421	-1.105404	0.000000	0.000000	13.244701	0.509064	8.336764	25.001739	-10.752844	-1.826177	113.885725	85.874768	-11.074252	4.270158	19.215126	-10.878972	-30.952217	125.697882	82.264819	-12.128954	3.714785
1.741379	-2.860071	-8.753971	88.082054	0.180300	0.711593	0.820474	15.897075	2.122435	-2.555207	13.113938	0.228881	27.255410	-3.230997	0.000000	12.940274	-1.672279	13.657897	7.342931	0.128158	25.415813	-13.383835	0.000000	0.152760	-0.077568	-0.180991	0.283690	-0.103165	-0.192303	0.250969	-0.188598	-0.192303	0.174589	-0.188598	-0.158367	0.141853	-0.158176	-0.147055	0.087287	-0.120152	-0.135743	1.091148	-0.877461	-1.006619	0.000000	0.000000	13.216078	0.646487	8.633379	25.132065	-11.136912	-2.930975	112.361053	86.418983	-11.480207	0.355963	19.011245	-10.512120	-30.375270	126.198704	82.589645	-12.055265	4.393797
1.758621	-2.763912	-8.835053	88.010887	0.180122	0.711535	0.820488	16.096916	2.166325	-2.871735	13.301732	0.232159	27.421082	-2.674470	0.000000	12.998130	-1.770468	13.600472	7.274689	0.126967	25.532696	-13.342409	0.000000	0.152339	-0.062214	-0.151402	0.282909	-0.082745	-0.160865	0.250278	-0.151268	-0.160865	0.174108	-0.151268	-0.132477	0.141462	-0.126868	-0.123014	0.087047	-0.096370	-0.113551	1.088143	-0.703781	-0.842052	0.000000	0.000000	13.215595	0.619688	8.889253	25.187738	-11.565627	-3.996494	110.891492	87.101215	-11.926612	-3.428698	18.856930	-10.170067	-29.360433	126.782818	82.894910	-12.030522	5.456436
1.775862	-2.673596	-8.929310	87.911519	0.180030	0.711456	0.820491	16.343100	2.216005	-3.178390	13.531634	0.236172	27.586351	-2.077160	0.000000	13.067598	-1.875979	13.453630	7.214014	0.125908	25.649909	-13.267012	0.000000	0.152867	-0.046300	-0.112085	0.283890	-0.061579	-0.119090	0.251145	-0.112574	-0.119090	0.174712	-0.112574	-0.098074	0.141952	-0.094415	-0.091069	0.087348	-0.071719	-0.084064	1.091915	-0.523756	-0.623383	0.000000	0.000000	13.252534	0.479066	9.062923	25.195021	-11.954476	-4.900108	109.680160	87.894950	-12.284369	-6.414895	18.691445	-9.873307	-28.064966	127.450152	83.191319	-12.029040	6.733721
1.793103	-2.633707	-9.033314	87.800973	0.180078	0.711360	0.820492	16.622437	2.224761	-3.468887	13.790596	0.240691	27.747990	-1.443984	0.000000	13.147884	-1.943648	13.211030	7.157345	0.124919	25.762604	-13.123118	0.000000	0.154924	-0.037393	-0.071017	0.287709	-0.049733	-0.075455	0.254524	-0.090918	-0.075455	0.177062	-0.090918	-0.062140	0.143862	-0.076252	-0.057701	0.088523	-0.057922	-0.053263	1.106606	-0.422998	-0.394974	0.000000	0.000000	13.296003	0.234252	9.068008	25.151569	-12.186733	-5.534841	108.812751	88.681681	-12.557992	-8.340101	18.480707	-9.646648	-26.651272	128.131972	83.414310	-12.065807	7.870587
1.810345	-2.645155	-9.140168	87.676754	0.180284	0.711243	0.820523	16.921454	2.216013	-3.577533	14.065610	0.245491	27.859480	-1.044032	0.000000	13.236537	-1.967078	12.960692	7.111256	0.124115	25.843493	-13.038937	0.000000	0.156908	-0.037128	-0.031158	0.291394	-0.049380	-0.033106	0.257785	-0.090272	-0.033106	0.179330	-0.090272	-0.027264	0.145705	-0.075711	-0.025316	0.089657	-0.057511	-0.023369	1.120780	-0.419997	-0.173293	0.000000	0.000000	13.353747	-0.067105	8.861016	25.079625	-12.221148	-5.829424	108.356871	89.165134	-12.729781	-8.939105	18.214717	-9.441434	-25.378493	128.782487	83.829258	-11.918359	8.809099
1.827586	-2.706959	-9.256893	87.545218	0.180628	0.711106	0.820595	17.236407	2.170541	-3.644360	14.345309	0.250373	27.955059	-0.687303	0.000000	13.348741	-1.956712	12.570452	7.085816	0.123671	25.945430	-12.780976	0.000000	0.159849	-0.045702	0.002596	0.296855	-0.060784	0.002759	0.262616	-0.111120	0.002759	0.182691	-0.111120	0.002272	0.148436	-0.093196	0.002110	0.091338	-0.070792	0.001947	1.141785	-0.516991	0.014440	0.000000	0.000000	13.429084	-0.388989	8.476280	24.977289	-12.056323	-5.753965	108.314491	89.472505	-12.777493	-8.306613	17.897962	-9.236959	-24.266898	129.367292	83.921276	-11.976684	9.247814
1.844828	-2.826746	-9.376365	87.456818	0.181076	0.710962	0.820723	17.543017	2.080833	-3.626186	14.604488	0.254896	28.013824	-0.514225	0.000000	13.487737	-1.894135	12.088769	7.087730	0.123704	26.054765	-12.347131	0.000000	0.162173	-0.065392	0.023383	0.301171	-0.086971	0.024844	0.266434	-0.158994	0.024844	0.185347	-0.158994	0.020460	0.150594	-0.133347	0.018999	0.092666	-0.101292	0.017537	1.158384	-0.739727	0.130048	0.000000	0.000000	13.531310	-0.693458	7.895032	24.829428	-11.712669	-5.396993	108.729047	89.322592	-12.659616	-6.301963	17.569399	-9.081369	-23.369984	129.760890	83.648754	-12.086770	8.897240
1.862069	-2.985487	-9.500605	87.386496	0.181576	0.710808	0.820892	17.841105	1.962141	-3.541106	14.842463	0.259050	28.055356	-0.465728	0.000000	13.645118	-1.793080	11.581309	7.106621	0.124034	26.144049	-11.854916	0.000000	0.164249	-0.092553	0.037943	0.305027	-0.123096	0.040315	0.269845	-0.225034	0.040315	0.187720	-0.225034	0.033200	0.152522	-0.188735	0.030829	0.093852	-0.143365	0.028458	1.173213	-1.046981	0.211030	0.000000	0.000000	13.679390	-0.986322	7.164436	24.621156	-11.265046	-4.820722	109.554159	88.901622	-12.449131	-3.290124	17.276452	-8.932383	-22.756731	129.978501	83.219794	-12.315186	8.074749
